<?xml version="1.0" encoding="UTF-8"?>
<!DOCTYPE svg PUBLIC "-//W3C//DTD SVG 1.1//EN" "http://www.w3.org/Graphics/SVG/1.1/DTD/svg11.dtd">
<svg xmlns="http://www.w3.org/2000/svg" version="1.1" width="1385px" height="351px" style="shape-rendering:geometricPrecision; text-rendering:geometricPrecision; image-rendering:optimizeQuality; fill-rule:evenodd; clip-rule:evenodd" xmlns:xlink="http://www.w3.org/1999/xlink">
<g><path style="opacity:1" fill="#fefefe" d="M -0.5,-0.5 C 77.8333,-0.5 156.167,-0.5 234.5,-0.5C 235.347,9.48707 236.014,19.4871 236.5,29.5C 231.848,32.8207 227.515,36.4874 223.5,40.5C 215.741,47.3388 209.408,55.3388 204.5,64.5C 199.592,55.3388 193.259,47.3388 185.5,40.5C 182.278,36.8784 178.612,33.7118 174.5,31C 141.571,11.5961 108.904,11.9294 76.5,32C 72.6659,34.6682 69.3325,37.8348 66.5,41.5C 57.5281,49.4896 50.8615,59.1563 46.5,70.5C 43.1168,77.6948 41.1168,85.3614 40.5,93.5C 38.8008,108.981 41.1341,123.981 47.5,138.5C 55.7459,156.078 68.4125,169.411 85.5,178.5C 86.0577,179.79 87.0577,180.623 88.5,181C 81.0918,184.923 74.4252,189.756 68.5,195.5C 58.8096,203.212 51.8096,212.879 47.5,224.5C 43.1578,232.506 40.8245,241.173 40.5,250.5C 38.5967,264.668 40.5967,278.335 46.5,291.5C 50.8442,302.503 57.1776,312.17 65.5,320.5C 93.9715,346.503 126.305,352.336 162.5,338C 171.523,333.463 179.523,327.63 186.5,320.5C 193.972,314.023 199.972,306.357 204.5,297.5C 209.365,306.694 215.698,314.694 223.5,321.5C 244.445,341.828 269.445,349.328 298.5,344C 314.936,341.283 328.936,334.117 340.5,322.5C 350.533,314.108 357.866,303.775 362.5,291.5C 367.557,279.168 369.557,266.502 368.5,253.5C 368.564,243.13 366.231,233.464 361.5,224.5C 356.607,212.715 349.274,202.715 339.5,194.5C 333.764,188.785 327.097,184.285 319.5,181C 321.066,180.392 322.4,179.558 323.5,178.5C 340.587,169.411 353.254,156.078 361.5,138.5C 366.366,127.701 368.699,116.367 368.5,104.5C 369.436,92.5267 367.436,81.1934 362.5,70.5C 358.167,59.1767 351.5,49.5101 342.5,41.5C 331.713,30.4313 318.713,22.9313 303.5,19C 288.763,15.5399 274.097,15.7066 259.5,19.5C 259.287,12.8259 258.954,6.15925 258.5,-0.5C 272.5,-0.5 286.5,-0.5 300.5,-0.5C 310.371,3.76864 320.037,8.60198 329.5,14C 341.17,16.1615 346.837,11.3281 346.5,-0.5C 568.167,-0.5 789.833,-0.5 1011.5,-0.5C 1018.57,11.2979 1026.41,22.6312 1035,33.5C 1037.67,31.6596 1040.17,29.6596 1042.5,27.5C 1036.05,18.4 1030.05,9.06671 1024.5,-0.5C 1144.5,-0.5 1264.5,-0.5 1384.5,-0.5C 1384.5,116.5 1384.5,233.5 1384.5,350.5C 922.833,350.5 461.167,350.5 -0.5,350.5C -0.5,233.5 -0.5,116.5 -0.5,-0.5 Z"/></g>
<g><path style="opacity:1" fill="#eff0f0" d="M 234.5,-0.5 C 242.5,-0.5 250.5,-0.5 258.5,-0.5C 258.954,6.15925 259.287,12.8259 259.5,19.5C 251.299,21.6756 243.632,25.0089 236.5,29.5C 236.014,19.4871 235.347,9.48707 234.5,-0.5 Z"/></g>
<g><path style="opacity:1" fill="#f0f0f0" d="M 300.5,-0.5 C 315.833,-0.5 331.167,-0.5 346.5,-0.5C 346.837,11.3281 341.17,16.1615 329.5,14C 320.037,8.60198 310.371,3.76864 300.5,-0.5 Z"/></g>
<g><path style="opacity:1" fill="#f0f0f0" d="M 1011.5,-0.5 C 1015.83,-0.5 1020.17,-0.5 1024.5,-0.5C 1030.05,9.06671 1036.05,18.4 1042.5,27.5C 1040.17,29.6596 1037.67,31.6596 1035,33.5C 1026.41,22.6312 1018.57,11.2979 1011.5,-0.5 Z"/></g>
<g><path style="opacity:1" fill="#f0f0f0" d="M 973.5,0.5 C 976.016,0.755257 978.35,1.58859 980.5,3C 996.881,13.8518 1012.88,25.1851 1028.5,37C 1026.57,39.5946 1024.07,41.428 1021,42.5C 1016.4,40.2299 1012.07,37.5632 1008,34.5C 1001.58,37.9216 995.411,41.755 989.5,46C 988.101,47.0616 987.101,48.395 986.5,50C 987.631,54.3938 988.965,58.7272 990.5,63C 988.127,65.7093 985.46,68.2093 982.5,70.5C 981.914,70.2907 981.414,69.9574 981,69.5C 975.629,49.0529 970.462,28.5529 965.5,8C 967.37,4.62885 970.037,2.12885 973.5,0.5 Z"/></g>
<g><path style="opacity:1" fill="#fdfdfd" d="M 977.5,13.5 C 985.09,18.0835 992.423,23.0835 999.5,28.5C 994.775,32.8597 989.441,36.193 983.5,38.5C 981.09,30.2688 979.09,21.9354 977.5,13.5 Z"/></g>
<g><path style="opacity:1" fill="#4bb5fe" d="M 185.5,40.5 C 177.016,41.493 168.349,41.8264 159.5,41.5C 137.152,30.902 114.818,30.902 92.5,41.5C 83.8333,41.5 75.1667,41.5 66.5,41.5C 69.3325,37.8348 72.6659,34.6682 76.5,32C 108.904,11.9294 141.571,11.5961 174.5,31C 178.612,33.7118 182.278,36.8784 185.5,40.5 Z"/></g>
<g><path style="opacity:1" fill="#4bb5fd" d="M 342.5,41.5 C 333.5,41.5 324.5,41.5 315.5,41.5C 312.574,40.3024 309.574,39.3024 306.5,38.5C 295.371,33.9128 283.704,32.4128 271.5,34C 269.618,34.1981 267.952,34.6981 266.5,35.5C 265.167,35.8333 263.833,36.1667 262.5,36.5C 257.833,38.1667 253.167,39.8333 248.5,41.5C 239.983,41.8261 231.65,41.4927 223.5,40.5C 227.515,36.4874 231.848,32.8207 236.5,29.5C 243.632,25.0089 251.299,21.6756 259.5,19.5C 274.097,15.7066 288.763,15.5399 303.5,19C 318.713,22.9313 331.713,30.4313 342.5,41.5 Z"/></g>
<g><path style="opacity:1" fill="#f0f0f0" d="M 928.5,32.5 C 940.924,30.9163 951.091,34.9163 959,44.5C 967.498,54.5074 969.831,65.8408 966,78.5C 954.946,96.9631 939.779,101.463 920.5,92C 909.187,83.211 904.02,71.711 905,57.5C 906.322,49.1777 910.489,42.6777 917.5,38C 921.259,36.1207 924.925,34.2874 928.5,32.5 Z"/></g>
<g><path style="opacity:1" fill="#fdfefe" d="M 159.5,41.5 C 171.855,48.8559 181.522,58.8559 188.5,71.5C 192.863,79.9512 195.196,88.9512 195.5,98.5C 195.962,112.647 192.962,125.98 186.5,138.5C 179.429,149.569 170.096,158.236 158.5,164.5C 126.079,178.604 97.5792,172.937 73,147.5C 70.4772,143.767 67.9772,140.101 65.5,136.5C 58.6452,123.715 55.9785,110.048 57.5,95.5C 58.0968,87.4454 60.0968,79.7787 63.5,72.5C 70.7396,59.926 80.4063,49.5927 92.5,41.5C 114.818,30.902 137.152,30.902 159.5,41.5 Z"/></g>
<g><path style="opacity:1" fill="#efeff0" d="M 306.5,38.5 C 294.844,45.8165 283.178,53.1498 271.5,60.5C 270.558,60.3918 269.725,60.0585 269,59.5C 267.631,51.2358 266.798,43.2358 266.5,35.5C 267.952,34.6981 269.618,34.1981 271.5,34C 283.704,32.4128 295.371,33.9128 306.5,38.5 Z"/></g>
<g><path style="opacity:1" fill="#fefefe" d="M 266.5,35.5 C 266.798,43.2358 267.631,51.2358 269,59.5C 269.725,60.0585 270.558,60.3918 271.5,60.5C 283.178,53.1498 294.844,45.8165 306.5,38.5C 309.574,39.3024 312.574,40.3024 315.5,41.5C 328.216,49.2156 338.216,59.5489 345.5,72.5C 348.67,79.8401 350.67,87.5067 351.5,95.5C 352.46,110.704 349.46,125.038 342.5,138.5C 322.317,167.409 294.983,177.576 260.5,169C 257.022,167.76 253.689,166.26 250.5,164.5C 238.19,157.856 228.523,148.523 221.5,136.5C 214.644,123.71 211.978,110.043 213.5,95.5C 214.097,87.4454 216.097,79.7787 219.5,72.5C 224.162,63.544 230.495,55.8773 238.5,49.5C 239.602,55.874 241.269,62.2074 243.5,68.5C 251.852,74.8077 258.686,73.4744 264,64.5C 264.099,55.1473 263.599,45.814 262.5,36.5C 263.833,36.1667 265.167,35.8333 266.5,35.5 Z"/></g>
<g><path style="opacity:1" fill="#eff0f0" d="M 262.5,36.5 C 263.599,45.814 264.099,55.1473 264,64.5C 258.686,73.4744 251.852,74.8077 243.5,68.5C 241.269,62.2074 239.602,55.874 238.5,49.5C 241.833,46.8333 245.167,44.1667 248.5,41.5C 253.167,39.8333 257.833,38.1667 262.5,36.5 Z"/></g>
<g><path style="opacity:1" fill="#47bafe" d="M 66.5,41.5 C 75.1667,41.5 83.8333,41.5 92.5,41.5C 80.4063,49.5927 70.7396,59.926 63.5,72.5C 59.065,72.2805 54.565,72.2805 50,72.5C 48.3189,72.3917 47.1522,71.7251 46.5,70.5C 50.8615,59.1563 57.5281,49.4896 66.5,41.5 Z"/></g>
<g><path style="opacity:1" fill="#46bafd" d="M 185.5,40.5 C 193.259,47.3388 199.592,55.3388 204.5,64.5C 209.408,55.3388 215.741,47.3388 223.5,40.5C 231.65,41.4927 239.983,41.8261 248.5,41.5C 245.167,44.1667 241.833,46.8333 238.5,49.5C 230.495,55.8773 224.162,63.544 219.5,72.5C 209.263,72.4202 198.93,72.0869 188.5,71.5C 181.522,58.8559 171.855,48.8559 159.5,41.5C 168.349,41.8264 177.016,41.493 185.5,40.5 Z"/></g>
<g><path style="opacity:1" fill="#46bafe" d="M 315.5,41.5 C 324.5,41.5 333.5,41.5 342.5,41.5C 351.5,49.5101 358.167,59.1767 362.5,70.5C 362.38,71.5862 361.713,72.2528 360.5,72.5C 355.507,72.3114 350.507,72.3114 345.5,72.5C 338.216,59.5489 328.216,49.2156 315.5,41.5 Z"/></g>
<g><path style="opacity:1" fill="#fefefe" d="M 931.5,41.5 C 944.695,43.1835 953.195,50.5169 957,63.5C 959.185,75.6245 954.352,83.4579 942.5,87C 932.929,87.9649 925.429,84.4649 920,76.5C 909.97,60.0905 913.803,48.4238 931.5,41.5 Z"/></g>
<g><path style="opacity:1" fill="#f0f0f0" d="M 873.5,70.5 C 880.997,69.5292 887.997,70.8625 894.5,74.5C 895.553,75.4383 896.22,76.605 896.5,78C 894.561,80.3066 892.228,82.14 889.5,83.5C 879.014,77.661 870.181,79.661 863,89.5C 859.382,102.473 862.882,113.306 873.5,122C 885.842,127.059 896.175,124.226 904.5,113.5C 906.256,111.809 906.756,109.809 906,107.5C 904.291,104.582 902.458,101.748 900.5,99C 895.817,101.455 891.15,104.288 886.5,107.5C 884.445,105.445 882.779,103.112 881.5,100.5C 887.694,95.8058 894.028,91.3058 900.5,87C 902.701,86.1751 904.534,86.6751 906,88.5C 909.276,94.1082 912.943,99.4415 917,104.5C 917.667,106.5 917.667,108.5 917,110.5C 908.601,127.252 895.101,135.085 876.5,134C 859.352,126.865 850.852,114.032 851,95.5C 851.483,91.5328 852.816,87.8662 855,84.5C 859.978,77.9907 866.145,73.324 873.5,70.5 Z"/></g>
<g><path style="opacity:1" fill="#40bffe" d="M 46.5,70.5 C 47.1522,71.7251 48.3189,72.3917 50,72.5C 54.565,72.2805 59.065,72.2805 63.5,72.5C 60.0968,79.7787 58.0968,87.4454 57.5,95.5C 56.5233,98.2869 56.19,101.287 56.5,104.5C 51.1667,104.5 45.8333,104.5 40.5,104.5C 40.5,100.833 40.5,97.1667 40.5,93.5C 41.1168,85.3614 43.1168,77.6948 46.5,70.5 Z"/></g>
<g><path style="opacity:1" fill="#3dbefe" d="M 188.5,71.5 C 198.93,72.0869 209.263,72.4202 219.5,72.5C 216.097,79.7787 214.097,87.4454 213.5,95.5C 212.523,98.2869 212.19,101.287 212.5,104.5C 207.167,104.5 201.833,104.5 196.5,104.5C 196.795,102.265 196.461,100.265 195.5,98.5C 195.196,88.9512 192.863,79.9512 188.5,71.5 Z"/></g>
<g><path style="opacity:1" fill="#41befe" d="M 299.5,100.5 C 299.5,101.833 299.5,103.167 299.5,104.5C 296.5,104.5 293.5,104.5 290.5,104.5C 290.768,102.901 290.434,101.568 289.5,100.5C 287.523,96.0296 284.19,94.5296 279.5,96C 277.536,97.451 276.203,99.2843 275.5,101.5C 274.596,102.209 274.263,103.209 274.5,104.5C 271.5,104.5 268.5,104.5 265.5,104.5C 265.5,102.833 265.5,101.167 265.5,99.5C 267.453,91.5472 272.453,86.5472 280.5,84.5C 284.902,73.4598 289.402,62.4598 294,51.5C 301.591,46.3756 306.757,48.209 309.5,57C 305.267,68.5309 300.934,80.0309 296.5,91.5C 298.347,94.1989 299.347,97.1989 299.5,100.5 Z"/></g>
<g><path style="opacity:1" fill="#40bffe" d="M 362.5,70.5 C 367.436,81.1934 369.436,92.5267 368.5,104.5C 363.167,104.5 357.833,104.5 352.5,104.5C 352.81,101.287 352.477,98.2869 351.5,95.5C 350.67,87.5067 348.67,79.8401 345.5,72.5C 350.507,72.3114 355.507,72.3114 360.5,72.5C 361.713,72.2528 362.38,71.5862 362.5,70.5 Z"/></g>
<g><path style="opacity:1" fill="#3fbffe" d="M 143.5,101.5 C 140.167,101.5 136.833,101.5 133.5,101.5C 131.002,95.5818 127.002,94.2485 121.5,97.5C 120.575,98.3569 119.908,99.3569 119.5,100.5C 114.595,101.445 109.595,101.779 104.5,101.5C 95.3973,97.6288 86.3973,93.4621 77.5,89C 72.1667,84 72.1667,79 77.5,74C 80.1667,73.3333 82.8333,73.3333 85.5,74C 95.7273,78.6969 105.894,83.5302 116,88.5C 127.456,82.8743 136.456,85.541 143,96.5C 143.494,98.1341 143.66,99.8008 143.5,101.5 Z"/></g>
<g><path style="opacity:1" fill="#fafdfe" d="M 133.5,101.5 C 133.767,106.738 131.267,109.738 126,110.5C 120.6,109.383 118.433,106.05 119.5,100.5C 119.908,99.3569 120.575,98.3569 121.5,97.5C 127.002,94.2485 131.002,95.5818 133.5,101.5 Z"/></g>
<g><path style="opacity:1" fill="#fbfdff" d="M 289.5,100.5 C 290.252,106.251 287.752,109.584 282,110.5C 277.32,109.319 275.153,106.319 275.5,101.5C 276.203,99.2843 277.536,97.451 279.5,96C 284.19,94.5296 287.523,96.0296 289.5,100.5 Z"/></g>
<g><path style="opacity:1" fill="#41c6fe" d="M 40.5,93.5 C 40.5,97.1667 40.5,100.833 40.5,104.5C 45.8333,104.5 51.1667,104.5 56.5,104.5C 56.19,101.287 56.5233,98.2869 57.5,95.5C 55.9785,110.048 58.6452,123.715 65.5,136.5C 59.9262,138.453 53.9262,139.12 47.5,138.5C 41.1341,123.981 38.8008,108.981 40.5,93.5 Z"/></g>
<g><path style="opacity:1" fill="#3cc4fe" d="M 119.5,100.5 C 118.433,106.05 120.6,109.383 126,110.5C 131.267,109.738 133.767,106.738 133.5,101.5C 136.833,101.5 140.167,101.5 143.5,101.5C 154.018,106.925 164.685,112.092 175.5,117C 179.753,120.42 180.587,124.587 178,129.5C 174.662,132.318 170.829,133.151 166.5,132C 156.591,126.878 146.591,122.045 136.5,117.5C 122.115,123.99 112.948,119.656 109,104.5C 107.348,103.601 105.848,102.601 104.5,101.5C 109.595,101.779 114.595,101.445 119.5,100.5 Z"/></g>
<g><path style="opacity:1" fill="#3dc6fe" d="M 213.5,95.5 C 211.978,110.043 214.644,123.71 221.5,136.5C 210.215,138.478 198.548,139.145 186.5,138.5C 192.962,125.98 195.962,112.647 195.5,98.5C 196.461,100.265 196.795,102.265 196.5,104.5C 201.833,104.5 207.167,104.5 212.5,104.5C 212.19,101.287 212.523,98.2869 213.5,95.5 Z"/></g>
<g><path style="opacity:1" fill="#3ec7fe" d="M 265.5,99.5 C 265.5,101.167 265.5,102.833 265.5,104.5C 268.5,104.5 271.5,104.5 274.5,104.5C 274.263,103.209 274.596,102.209 275.5,101.5C 275.153,106.319 277.32,109.319 282,110.5C 287.752,109.584 290.252,106.251 289.5,100.5C 290.434,101.568 290.768,102.901 290.5,104.5C 293.5,104.5 296.5,104.5 299.5,104.5C 299.5,103.167 299.5,101.833 299.5,100.5C 300.837,106.975 298.837,112.475 293.5,117C 290.491,118.504 287.491,120.004 284.5,121.5C 280,132.5 275.5,143.5 271,154.5C 263.539,159.703 258.373,158.036 255.5,149.5C 259.237,137.624 263.57,125.958 268.5,114.5C 265.118,109.764 264.118,104.764 265.5,99.5 Z"/></g>
<g><path style="opacity:1" fill="#3dc6fe" d="M 351.5,95.5 C 352.477,98.2869 352.81,101.287 352.5,104.5C 357.833,104.5 363.167,104.5 368.5,104.5C 368.699,116.367 366.366,127.701 361.5,138.5C 355.167,138.5 348.833,138.5 342.5,138.5C 349.46,125.038 352.46,110.704 351.5,95.5 Z"/></g>
<g><path style="opacity:1" fill="#f0f0f0" d="M 858.5,150.5 C 855.167,150.5 851.833,150.5 848.5,150.5C 849.921,138.828 845.921,129.328 836.5,122C 826.201,116.315 817.034,117.815 809,126.5C 804.391,134.954 804.725,143.287 810,151.5C 813.083,154.754 816.249,157.754 819.5,160.5C 819.5,164.167 819.5,167.833 819.5,171.5C 807.318,166.472 799.484,157.472 796,144.5C 794.839,126.346 803.005,114.512 820.5,109C 829.869,107.679 838.202,110.012 845.5,116C 851.064,121.633 855.23,128.133 858,135.5C 858.499,140.489 858.666,145.489 858.5,150.5 Z"/></g>
<g><path style="opacity:1" fill="#fefefe" d="M 848.5,150.5 C 841.411,150.116 834.411,150.616 827.5,152C 823.923,154.074 821.256,156.907 819.5,160.5C 816.249,157.754 813.083,154.754 810,151.5C 804.725,143.287 804.391,134.954 809,126.5C 817.034,117.815 826.201,116.315 836.5,122C 845.921,129.328 849.921,138.828 848.5,150.5 Z"/></g>
<g><path style="opacity:1" fill="#31cafe" d="M 221.5,136.5 C 228.523,148.523 238.19,157.856 250.5,164.5C 219.833,165.833 189.167,165.833 158.5,164.5C 170.096,158.236 179.429,149.569 186.5,138.5C 198.548,139.145 210.215,138.478 221.5,136.5 Z"/></g>
<g><path style="opacity:1" fill="#3e4c6b" d="M 414.5,151.5 C 426.505,151.333 438.505,151.5 450.5,152C 467.809,155.31 478.642,165.476 483,182.5C 484.679,195.338 483.013,207.672 478,219.5C 472.24,229.25 463.74,235.083 452.5,237C 440.833,237.667 429.167,237.667 417.5,237C 412.333,235.833 409.167,232.667 408,227.5C 407.333,205.5 407.333,183.5 408,161.5C 408.932,157.288 411.098,153.955 414.5,151.5 Z"/></g>
<g><path style="opacity:1" fill="#3f4d6c" d="M 848.5,150.5 C 851.833,150.5 855.167,150.5 858.5,150.5C 864.509,150.334 870.509,150.501 876.5,151C 889.539,151.749 892.872,157.749 886.5,169C 884.608,169.973 882.608,170.64 880.5,171C 869.839,171.5 859.172,171.667 848.5,171.5C 848.5,176.5 848.5,181.5 848.5,186.5C 858.172,186.334 867.839,186.5 877.5,187C 881.408,188.13 883.074,190.797 882.5,195C 883.192,198.532 881.859,200.865 878.5,202C 868.566,203.395 858.566,203.895 848.5,203.5C 848.666,211.507 848.5,219.507 848,227.5C 844.407,235.547 838.24,238.714 829.5,237C 824.6,235.098 821.433,231.598 820,226.5C 819.5,208.17 819.333,189.836 819.5,171.5C 819.5,167.833 819.5,164.167 819.5,160.5C 821.256,156.907 823.923,154.074 827.5,152C 834.411,150.616 841.411,150.116 848.5,150.5 Z"/></g>
<g><path style="opacity:1" fill="#f0f0f0" d="M 770.5,201.5 C 773.04,187.038 767.04,178.705 752.5,176.5C 753.552,176.649 754.552,176.483 755.5,176C 751.796,171.428 748.463,166.594 745.5,161.5C 747.219,158.781 749.553,156.781 752.5,155.5C 763.161,169.669 773.661,184.003 784,198.5C 792.721,192.269 801.554,186.269 810.5,180.5C 812.86,181.865 814.527,183.865 815.5,186.5C 804.047,195.066 792.38,203.4 780.5,211.5C 778.192,208.025 775.692,204.692 773,201.5C 772.23,200.402 771.397,200.402 770.5,201.5 Z"/></g>
<g><path style="opacity:1" fill="#3e4c6c" d="M 1362.5,171.5 C 1362.5,174.5 1362.5,177.5 1362.5,180.5C 1365.17,180.5 1367.83,180.5 1370.5,180.5C 1378.81,182.62 1380.48,187.12 1375.5,194C 1371.25,195.195 1366.92,195.695 1362.5,195.5C 1362.33,201.842 1362.5,208.175 1363,214.5C 1364.73,215.576 1366.56,215.743 1368.5,215C 1369.83,213.333 1371.17,211.667 1372.5,210C 1377.18,208.5 1379.51,210.167 1379.5,215C 1378.53,229.633 1370.7,237.133 1356,237.5C 1344.72,237.214 1338.05,231.547 1336,220.5C 1335.5,212.173 1335.33,203.84 1335.5,195.5C 1328.31,195.152 1325.48,191.485 1327,184.5C 1328.89,181.156 1331.73,179.822 1335.5,180.5C 1335.33,175.489 1335.5,170.489 1336,165.5C 1342.01,157.938 1349.84,155.105 1359.5,157C 1360.33,157.833 1361.17,158.667 1362,159.5C 1362.5,163.486 1362.67,167.486 1362.5,171.5 Z"/></g>
<g><path style="opacity:1" fill="#30cdfe" d="M 65.5,136.5 C 67.9772,140.101 70.4772,143.767 73,147.5C 97.5792,172.937 126.079,178.604 158.5,164.5C 189.167,165.833 219.833,165.833 250.5,164.5C 253.689,166.26 257.022,167.76 260.5,169C 294.983,177.576 322.317,167.409 342.5,138.5C 348.833,138.5 355.167,138.5 361.5,138.5C 353.254,156.078 340.587,169.411 323.5,178.5C 244.167,178.5 164.833,178.5 85.5,178.5C 68.4125,169.411 55.7459,156.078 47.5,138.5C 53.9262,139.12 59.9262,138.453 65.5,136.5 Z"/></g>
<g><path style="opacity:1" fill="#fcfcfc" d="M 436.5,168.5 C 445.799,168.629 451.299,173.296 453,182.5C 453.752,191.208 453.419,199.875 452,208.5C 449.566,216.107 444.4,220.107 436.5,220.5C 436.5,203.167 436.5,185.833 436.5,168.5 Z"/></g>
<g><path style="opacity:1" fill="#3f4c6c" d="M 576.5,176.5 C 589.697,174.634 601.697,177.467 612.5,185C 622.261,196.24 624.095,208.74 618,222.5C 613.005,229.916 606.172,234.749 597.5,237C 590.167,237.667 582.833,237.667 575.5,237C 560.33,232.997 552.33,223.163 551.5,207.5C 552.838,191.498 561.171,181.165 576.5,176.5 Z"/></g>
<g><path style="opacity:1" fill="#3e4c6c" d="M 752.5,176.5 C 767.04,178.705 773.04,187.038 770.5,201.5C 768.17,205.183 764.837,207.683 760.5,209C 752.173,209.5 743.84,209.666 735.5,209.5C 736.485,213.33 738.819,216.163 742.5,218C 750.168,219.263 757.501,218.263 764.5,215C 766.833,214.333 769.167,214.333 771.5,215C 772.912,218.703 772.412,222.203 770,225.5C 759.409,236.362 746.576,240.195 731.5,237C 711.754,230.9 704.254,217.734 709,197.5C 713.422,186.744 721.255,179.911 732.5,177C 739.158,176.5 745.825,176.334 752.5,176.5 Z"/></g>
<g><path style="opacity:1" fill="#3e4c6c" d="M 920.5,176.5 C 933.58,174.851 945.246,178.018 955.5,186C 965.087,198.558 965.921,211.724 958,225.5C 945.383,237.493 930.55,240.993 913.5,236C 897.973,228.784 891.473,216.618 894,199.5C 898.544,186.822 907.377,179.155 920.5,176.5 Z"/></g>
<g><path style="opacity:1" fill="#3f4c6c" d="M 1075.5,209.5 C 1069.46,209.171 1063.46,209.504 1057.5,210.5C 1057.62,211.107 1057.96,211.44 1058.5,211.5C 1059.66,214.822 1061.99,216.988 1065.5,218C 1069.83,218.667 1074.17,218.667 1078.5,218C 1082.69,216.825 1086.85,215.659 1091,214.5C 1093.85,214.393 1095.35,215.727 1095.5,218.5C 1091.88,228.338 1084.88,234.504 1074.5,237C 1059.7,240.261 1046.87,236.761 1036,226.5C 1030.31,217.164 1028.97,207.164 1032,196.5C 1036.99,185.515 1045.49,179.015 1057.5,177C 1067.6,175.493 1077.27,176.826 1086.5,181C 1093.49,186.775 1095.32,193.942 1092,202.5C 1087.64,207.455 1082.14,209.789 1075.5,209.5 Z"/></g>
<g><path style="opacity:1" fill="#3f4d6c" d="M 1130.5,176.5 C 1138.9,176.13 1147.24,176.63 1155.5,178C 1168.65,181.793 1172.48,189.959 1167,202.5C 1160.15,209.579 1152.15,211.246 1143,207.5C 1140.99,201.786 1141.15,196.119 1143.5,190.5C 1143.39,189.558 1143.06,188.725 1142.5,188C 1137.54,187.267 1134.37,189.433 1133,194.5C 1128.54,213.711 1136.04,221.544 1155.5,218C 1169.5,211.007 1173,214.174 1166,227.5C 1155.67,237.115 1143.5,240.282 1129.5,237C 1107.33,228.908 1100.5,213.741 1109,191.5C 1114.42,183.905 1121.58,178.905 1130.5,176.5 Z"/></g>
<g><path style="opacity:1" fill="#3e4c6c" d="M 1197.5,176.5 C 1207.1,175.093 1215.6,177.426 1223,183.5C 1225.49,179.34 1229.16,177.34 1234,177.5C 1240.68,176.837 1245.35,179.504 1248,185.5C 1248.67,199.833 1248.67,214.167 1248,228.5C 1247.17,233.333 1244.33,236.167 1239.5,237C 1233.07,238.65 1227.57,237.15 1223,232.5C 1215.14,237.238 1206.64,238.738 1197.5,237C 1188.85,232.885 1183.68,226.051 1182,216.5C 1178.09,199.356 1183.26,186.023 1197.5,176.5 Z"/></g>
<g><path style="opacity:1" fill="#3f4d6c" d="M 1280.5,176.5 C 1291.96,175.159 1302.63,177.325 1312.5,183C 1315.98,185.766 1317.48,189.266 1317,193.5C 1315.87,194.944 1314.37,195.61 1312.5,195.5C 1306.88,193.029 1301.22,190.529 1295.5,188C 1293.17,187.333 1290.83,187.333 1288.5,188C 1285.66,191.159 1286.33,193.492 1290.5,195C 1298.48,197.216 1306.15,200.216 1313.5,204C 1323.07,213.637 1322.74,222.97 1312.5,232C 1308.46,234.427 1304.13,236.094 1299.5,237C 1291.5,237.667 1283.5,237.667 1275.5,237C 1270.47,235.402 1265.97,232.902 1262,229.5C 1257.3,220.189 1260.13,216.689 1270.5,219C 1276.62,223.071 1283.28,224.405 1290.5,223C 1293.17,221.333 1293.17,219.667 1290.5,218C 1279.71,216.685 1270.21,212.518 1262,205.5C 1257.48,196.184 1259.31,188.351 1267.5,182C 1271.74,179.651 1276.07,177.818 1280.5,176.5 Z"/></g>
<g><path style="opacity:1" fill="#3e4c6c" d="M 502.5,177.5 C 506.514,177.334 510.514,177.501 514.5,178C 517.102,178.883 519.269,180.383 521,182.5C 527.038,177.769 533.871,176.269 541.5,178C 544,179.167 545.833,181 547,183.5C 548.382,200.607 541.549,204.94 526.5,196.5C 525.446,196.68 524.446,197.013 523.5,197.5C 522.668,207.817 522.168,218.151 522,228.5C 521.051,233.781 517.885,236.614 512.5,237C 504.756,239.097 499.256,236.597 496,229.5C 495.333,214.833 495.333,200.167 496,185.5C 497.305,182.039 499.471,179.372 502.5,177.5 Z"/></g>
<g><path style="opacity:1" fill="#3e4c6c" d="M 675.5,176.5 C 689.037,175.013 696.537,181.013 698,194.5C 699.286,207.703 698.286,220.703 695,233.5C 687.638,238.772 680.304,238.772 673,233.5C 671.729,221.912 670.729,210.245 670,198.5C 664.632,195.011 660.966,196.344 659,202.5C 658.667,211.833 658.333,221.167 658,230.5C 655.178,235.414 650.845,237.748 645,237.5C 638.699,238.031 634.699,235.365 633,229.5C 632.032,213.741 632.365,198.074 634,182.5C 638.491,177.741 643.991,176.241 650.5,178C 653.577,178.619 656.077,180.119 658,182.5C 663.715,179.763 669.549,177.763 675.5,176.5 Z"/></g>
<g><path style="opacity:1" fill="#3f4c6c" d="M 981.5,177.5 C 985.182,177.335 988.848,177.501 992.5,178C 995.215,178.878 997.549,180.378 999.5,182.5C 1005.4,177.835 1012.07,176.335 1019.5,178C 1025.6,181.04 1027.77,185.874 1026,192.5C 1023.83,199.836 1019,202.336 1011.5,200C 1008.34,196.23 1004.84,195.73 1001,198.5C 1000.67,209.167 1000.33,219.833 1000,230.5C 998.42,234.216 995.587,236.383 991.5,237C 987.406,237.767 983.406,237.434 979.5,236C 977.185,234.891 975.685,233.057 975,230.5C 973.46,215.87 973.127,201.203 974,186.5C 975.642,182.7 978.142,179.7 981.5,177.5 Z"/></g>
<g><path style="opacity:1" fill="#2ad0fe" d="M 85.5,178.5 C 164.833,178.5 244.167,178.5 323.5,178.5C 322.4,179.558 321.066,180.392 319.5,181C 327.097,184.285 333.764,188.785 339.5,194.5C 330.348,195.494 321.015,195.827 311.5,195.5C 298.944,190.612 285.944,188.779 272.5,190C 266.045,191.522 259.711,193.355 253.5,195.5C 220.833,195.5 188.167,195.5 155.5,195.5C 136.139,187.571 116.806,187.571 97.5,195.5C 87.8333,195.5 78.1667,195.5 68.5,195.5C 74.4252,189.756 81.0918,184.923 88.5,181C 87.0577,180.623 86.0577,179.79 85.5,178.5 Z"/></g>
<g><path style="opacity:1" fill="#c3c7d1" d="M 1362.5,171.5 C 1363.47,173.948 1363.81,176.615 1363.5,179.5C 1366.06,179.198 1368.39,179.532 1370.5,180.5C 1367.83,180.5 1365.17,180.5 1362.5,180.5C 1362.5,177.5 1362.5,174.5 1362.5,171.5 Z"/></g>
<g><path style="opacity:1" fill="#fafafb" d="M 744.5,201.5 C 741.5,201.5 738.5,201.5 735.5,201.5C 735.5,200.167 735.5,198.833 735.5,197.5C 735.901,190.926 739.234,187.759 745.5,188C 747.456,191.595 747.956,195.428 747,199.5C 746.292,200.381 745.458,201.047 744.5,201.5 Z"/></g>
<g><path style="opacity:1" fill="#fafafb" d="M 1062.5,187.5 C 1065.04,187.104 1067.21,187.771 1069,189.5C 1069.67,193.167 1069.67,196.833 1069,200.5C 1065.27,201.46 1061.44,201.793 1057.5,201.5C 1057.48,196.217 1059.14,191.55 1062.5,187.5 Z"/></g>
<g><path style="opacity:1" fill="#fefefe" d="M 155.5,195.5 C 164.556,200.473 172.723,206.806 180,214.5C 182.363,218.345 184.863,222.011 187.5,225.5C 191.883,234.697 194.549,244.364 195.5,254.5C 195.962,267.065 193.629,279.065 188.5,290.5C 181.912,302.756 172.579,312.422 160.5,319.5C 137.507,331.459 114.507,331.459 91.5,319.5C 80.4545,312.121 71.4545,302.788 64.5,291.5C 59.3714,280.065 57.038,268.065 57.5,255.5C 57.5198,244.777 60.1864,234.777 65.5,225.5C 73.2691,212.397 83.9358,202.397 97.5,195.5C 116.806,187.571 136.139,187.571 155.5,195.5 Z"/></g>
<g><path style="opacity:1" fill="#fefefe" d="M 311.5,195.5 C 325.064,202.397 335.731,212.397 343.5,225.5C 347.574,233.723 350.241,242.39 351.5,251.5C 352.376,265.116 350.043,278.116 344.5,290.5C 337.912,302.756 328.579,312.422 316.5,319.5C 293.52,331.461 270.52,331.461 247.5,319.5C 236.455,312.121 227.455,302.788 220.5,291.5C 214.934,278.775 212.601,265.442 213.5,251.5C 214.44,242.29 217.107,233.623 221.5,225.5C 229.269,212.397 239.936,202.397 253.5,195.5C 259.711,193.355 266.045,191.522 272.5,190C 285.944,188.779 298.944,190.612 311.5,195.5 Z"/></g>
<g><path style="opacity:1" fill="#f8f9fa" d="M 585.5,190.5 C 589.043,190.872 591.21,192.872 592,196.5C 594.172,204.603 593.838,212.603 591,220.5C 587.477,224.701 584.477,224.368 582,219.5C 580.485,212.233 580.152,204.899 581,197.5C 582.012,194.798 583.512,192.465 585.5,190.5 Z"/></g>
<g><path style="opacity:1" fill="#f8f8f9" d="M 927.5,190.5 C 930.292,190.452 932.125,191.785 933,194.5C 934.964,202.847 934.964,211.18 933,219.5C 930,224.833 927,224.833 924,219.5C 921.014,211.992 920.68,204.325 923,196.5C 924.277,194.253 925.777,192.253 927.5,190.5 Z"/></g>
<g><path style="opacity:1" fill="#fafbfb" d="M 1214.5,191.5 C 1217.1,191.549 1219.27,192.549 1221,194.5C 1221.67,202.833 1221.67,211.167 1221,219.5C 1215.86,224.131 1212.19,223.131 1210,216.5C 1208.05,210.152 1208.05,203.819 1210,197.5C 1211.28,195.253 1212.78,193.253 1214.5,191.5 Z"/></g>
<g><path style="opacity:1" fill="#2bd4fe" d="M 68.5,195.5 C 78.1667,195.5 87.8333,195.5 97.5,195.5C 83.9358,202.397 73.2691,212.397 65.5,225.5C 59.31,225.823 53.31,225.49 47.5,224.5C 51.8096,212.879 58.8096,203.212 68.5,195.5 Z"/></g>
<g><path style="opacity:1" fill="#27d3fe" d="M 155.5,195.5 C 188.167,195.5 220.833,195.5 253.5,195.5C 239.936,202.397 229.269,212.397 221.5,225.5C 210.167,225.5 198.833,225.5 187.5,225.5C 184.863,222.011 182.363,218.345 180,214.5C 172.723,206.806 164.556,200.473 155.5,195.5 Z"/></g>
<g><path style="opacity:1" fill="#2bd4fe" d="M 339.5,194.5 C 349.274,202.715 356.607,212.715 361.5,224.5C 355.69,225.49 349.69,225.823 343.5,225.5C 335.731,212.397 325.064,202.397 311.5,195.5C 321.015,195.827 330.348,195.494 339.5,194.5 Z"/></g>
<g><path style="opacity:1" fill="#848da0" d="M 735.5,197.5 C 735.5,198.833 735.5,200.167 735.5,201.5C 738.5,201.5 741.5,201.5 744.5,201.5C 741.375,202.479 738.042,202.813 734.5,202.5C 734.216,200.585 734.549,198.919 735.5,197.5 Z"/></g>
<g><path style="opacity:1" fill="#9ca3b3" d="M 1075.5,209.5 C 1069.83,210.167 1064.17,210.833 1058.5,211.5C 1057.96,211.44 1057.62,211.107 1057.5,210.5C 1063.46,209.504 1069.46,209.171 1075.5,209.5 Z"/></g>
<g><path style="opacity:1" fill="#2ad8fe" d="M 134.5,243.5 C 133.756,245.453 132.256,246.453 130,246.5C 128.342,246.325 127.009,245.658 126,244.5C 123.333,247.167 120.667,247.167 118,244.5C 116.599,246.192 114.766,246.859 112.5,246.5C 107.871,237.14 103.704,227.473 100,217.5C 98.1717,206.992 102.338,203.159 112.5,206C 113.333,206.833 114.167,207.667 115,208.5C 119.333,219.167 123.667,229.833 128,240.5C 130.221,241.406 132.388,242.406 134.5,243.5 Z"/></g>
<g><path style="opacity:1" fill="#24d9fe" d="M 187.5,225.5 C 198.833,225.5 210.167,225.5 221.5,225.5C 217.107,233.623 214.44,242.29 213.5,251.5C 212.521,254.625 212.187,257.958 212.5,261.5C 207.167,261.5 201.833,261.5 196.5,261.5C 196.802,258.941 196.468,256.607 195.5,254.5C 194.549,244.364 191.883,234.697 187.5,225.5 Z"/></g>
<g><path style="opacity:1" fill="#23dbfe" d="M 47.5,224.5 C 53.31,225.49 59.31,225.823 65.5,225.5C 60.1864,234.777 57.5198,244.777 57.5,255.5C 56.5386,257.265 56.2053,259.265 56.5,261.5C 51.1667,261.5 45.8333,261.5 40.5,261.5C 40.5,257.833 40.5,254.167 40.5,250.5C 40.8245,241.173 43.1578,232.506 47.5,224.5 Z"/></g>
<g><path style="opacity:1" fill="#28dbfe" d="M 299.5,261.5 C 296.5,261.5 293.5,261.5 290.5,261.5C 290.737,260.209 290.404,259.209 289.5,258.5C 287.979,252.406 284.313,250.573 278.5,253C 276.859,254.129 275.859,255.629 275.5,257.5C 274.566,258.568 274.232,259.901 274.5,261.5C 270.298,261.817 266.298,261.483 262.5,260.5C 264.406,256.65 266.24,252.65 268,248.5C 274.75,241.284 282.75,239.617 292,243.5C 303.157,237.672 314.323,232.005 325.5,226.5C 332.526,227.558 335.36,231.558 334,238.5C 332.833,240.333 331.333,241.833 329.5,243C 320.006,247.913 310.672,253.08 301.5,258.5C 300.575,259.357 299.908,260.357 299.5,261.5 Z"/></g>
<g><path style="opacity:1" fill="#25dbfe" d="M 361.5,224.5 C 366.231,233.464 368.564,243.13 368.5,253.5C 368.5,256.167 368.5,258.833 368.5,261.5C 363.167,261.5 357.833,261.5 352.5,261.5C 352.813,257.958 352.479,254.625 351.5,251.5C 350.241,242.39 347.574,233.723 343.5,225.5C 349.69,225.823 355.69,225.49 361.5,224.5 Z"/></g>
<g><path style="opacity:1" fill="#fcfeff" d="M 289.5,258.5 C 289.236,263.431 286.569,266.098 281.5,266.5C 277.094,265.096 275.094,262.096 275.5,257.5C 275.859,255.629 276.859,254.129 278.5,253C 284.313,250.573 287.979,252.406 289.5,258.5 Z"/></g>
<g><path style="opacity:1" fill="#2bdffe" d="M 134.5,243.5 C 144.768,250.41 146.768,259.243 140.5,270C 141.409,272.895 142.409,275.728 143.5,278.5C 137.5,278.5 131.5,278.5 125.5,278.5C 109.523,272.548 105.19,261.882 112.5,246.5C 114.766,246.859 116.599,246.192 118,244.5C 120.667,247.167 123.333,247.167 126,244.5C 127.009,245.658 128.342,246.325 130,246.5C 132.256,246.453 133.756,245.453 134.5,243.5 Z"/></g>
<g><path style="opacity:1" fill="#fbfefe" d="M 123.5,251.5 C 129.53,250.868 132.863,253.535 133.5,259.5C 132.757,263.904 130.09,266.238 125.5,266.5C 119.974,264.754 118.141,261.088 120,255.5C 121.376,254.295 122.542,252.962 123.5,251.5 Z"/></g>
<g><path style="opacity:1" fill="#25e0fe" d="M 275.5,257.5 C 275.094,262.096 277.094,265.096 281.5,266.5C 286.569,266.098 289.236,263.431 289.5,258.5C 290.404,259.209 290.737,260.209 290.5,261.5C 293.5,261.5 296.5,261.5 299.5,261.5C 297.85,271.313 292.017,276.313 282,276.5C 278.813,276.606 275.813,275.939 273,274.5C 263.276,279.278 253.776,284.445 244.5,290C 234.836,293.088 230.336,289.588 231,279.5C 240.745,272.039 251.245,265.705 262.5,260.5C 266.298,261.483 270.298,261.817 274.5,261.5C 274.232,259.901 274.566,258.568 275.5,257.5 Z"/></g>
<g><path style="opacity:1" fill="#2be1fe" d="M 40.5,250.5 C 40.5,254.167 40.5,257.833 40.5,261.5C 45.8333,261.5 51.1667,261.5 56.5,261.5C 56.2053,259.265 56.5386,257.265 57.5,255.5C 57.038,268.065 59.3714,280.065 64.5,291.5C 58.5,291.5 52.5,291.5 46.5,291.5C 40.5967,278.335 38.5967,264.668 40.5,250.5 Z"/></g>
<g><path style="opacity:1" fill="#26e1fe" d="M 213.5,251.5 C 212.601,265.442 214.934,278.775 220.5,291.5C 209.654,291.828 198.987,291.494 188.5,290.5C 193.629,279.065 195.962,267.065 195.5,254.5C 196.468,256.607 196.802,258.941 196.5,261.5C 201.833,261.5 207.167,261.5 212.5,261.5C 212.187,257.958 212.521,254.625 213.5,251.5 Z"/></g>
<g><path style="opacity:1" fill="#28e1fe" d="M 351.5,251.5 C 352.479,254.625 352.813,257.958 352.5,261.5C 357.833,261.5 363.167,261.5 368.5,261.5C 368.5,258.833 368.5,256.167 368.5,253.5C 369.557,266.502 367.557,279.168 362.5,291.5C 356.31,291.823 350.31,291.49 344.5,290.5C 350.043,278.116 352.376,265.116 351.5,251.5 Z"/></g>
<g><path style="opacity:1" fill="#1fe5fe" d="M 46.5,291.5 C 52.5,291.5 58.5,291.5 64.5,291.5C 71.4545,302.788 80.4545,312.121 91.5,319.5C 88.8954,320.592 86.062,321.259 83,321.5C 77.2912,321.722 71.4578,321.388 65.5,320.5C 57.1776,312.17 50.8442,302.503 46.5,291.5 Z"/></g>
<g><path style="opacity:1" fill="#21e4fe" d="M 125.5,278.5 C 131.5,278.5 137.5,278.5 143.5,278.5C 147.53,287.062 150.864,295.896 153.5,305C 152.208,312.814 147.874,315.148 140.5,312C 139.667,311.167 138.833,310.333 138,309.5C 133.267,299.372 129.1,289.038 125.5,278.5 Z"/></g>
<g><path style="opacity:1" fill="#1ee5fe" d="M 188.5,290.5 C 198.987,291.494 209.654,291.828 220.5,291.5C 227.455,302.788 236.455,312.121 247.5,319.5C 246.508,321.026 245.008,321.693 243,321.5C 236.512,321.17 230.012,321.17 223.5,321.5C 215.698,314.694 209.365,306.694 204.5,297.5C 199.972,306.357 193.972,314.023 186.5,320.5C 181.225,321.407 176.058,321.74 171,321.5C 167.303,321.145 163.803,320.478 160.5,319.5C 172.579,312.422 181.912,302.756 188.5,290.5 Z"/></g>
<g><path style="opacity:1" fill="#1ee5fe" d="M 344.5,290.5 C 350.31,291.49 356.31,291.823 362.5,291.5C 357.866,303.775 350.533,314.108 340.5,322.5C 338.782,321.776 336.948,321.109 335,320.5C 330.944,321.094 326.944,321.427 323,321.5C 320.516,321.503 318.349,320.837 316.5,319.5C 328.579,312.422 337.912,302.756 344.5,290.5 Z"/></g>
<g><path style="opacity:1" fill="#1eeafe" d="M 91.5,319.5 C 114.507,331.459 137.507,331.459 160.5,319.5C 163.803,320.478 167.303,321.145 171,321.5C 176.058,321.74 181.225,321.407 186.5,320.5C 179.523,327.63 171.523,333.463 162.5,338C 126.305,352.336 93.9715,346.503 65.5,320.5C 71.4578,321.388 77.2912,321.722 83,321.5C 86.062,321.259 88.8954,320.592 91.5,319.5 Z"/></g>
<g><path style="opacity:1" fill="#1eeafe" d="M 247.5,319.5 C 270.52,331.461 293.52,331.461 316.5,319.5C 318.349,320.837 320.516,321.503 323,321.5C 326.944,321.427 330.944,321.094 335,320.5C 336.948,321.109 338.782,321.776 340.5,322.5C 328.936,334.117 314.936,341.283 298.5,344C 269.445,349.328 244.445,341.828 223.5,321.5C 230.012,321.17 236.512,321.17 243,321.5C 245.008,321.693 246.508,321.026 247.5,319.5 Z"/></g>
</svg>
